<?xml version="1.0" encoding="UTF-8"?><svg id="Layer_2" xmlns="http://www.w3.org/2000/svg" viewBox="0 0 201.71 168.22"><defs><style>.cls-1{fill:#00a5e0;fill-rule:evenodd;}.cls-2{fill:#002e6e;}.cls-3{fill:none;stroke:#231f20;stroke-miterlimit:2.61;stroke-width:.25px;}.cls-4{fill:#231f20;font-family:ArialMT, Arial;font-size:6.36px;}</style></defs><g id="Layer_1-2"><path class="cls-1" d="M161,74.84l-.02.9c-26.47,25.97-60.7,48.87-97.85,70.76-22.84,13.29-42.32,21.78-55.8,21.71-9.53-1.11-10.51-10.73,1.54-30.66,8.85-11.27,19.97-21.19,33.99-28.56,3.44-1.81,5.6-1.58,5.92-.54.21,1.58-17.4,21.5-18.3,31.72-1.61,10.52,7.65,10.56,23.24,4.1,31.07-14.45,61.2-34,90.12-55.54,1.66-1.24,3.31-2.39,4.93-3.68,3.6-2.87,7.24-5.67,10.79-8.62.53-.44.92-1.15,1.45-1.59M25.82,101.4c.54-.89,1.22-1.87,2.11-2.61C67.61,66.1,138.11,19.31,157.19,20.58c13.71.92.3,21.43-12.85,39.16-.51.68.96,1.03,2.06,1.03,1,0,1.62-.3,1.85-.41,7.12-3.37,13.7-7.82,19.76-12.76,6.57-5.36,12.49-11.33,16.87-17.6,2.57-3.68,4.69-8.06,6.18-12.34,1.7-4.86,2.49-9.64.37-14.07-6.57-13.73-59.23,14.79-89.1,35.44-14.62,10.11-30.62,20.94-45.25,32.35-11.02,8.6-21.27,17.44-29.57,26.99-.76.87-1.38,1.84-2.2,2.68l.51.33Z"/><path class="cls-2" d="M190.45,69.48v6.31s-.85,0-.85,0c-.51-1.46-1.07-2.51-1.69-3.14-.62-.64-1.47-1.14-2.55-1.52-.6-.21-1.65-.31-3.16-.31h-2.4v17.98c0,1.19.09,1.94.27,2.24.19.3.54.56,1.07.78.54.23,1.26.34,2.17.34h1.07s0,.63,0,.63h-16.87s0-.63,0-.63h1.07c.93,0,1.69-.12,2.26-.36.41-.16.74-.43.97-.83.18-.27.27-.99.27-2.17v-17.98h-2.34c-2.17,0-3.75.33-4.73,1-1.38.93-2.25,2.25-2.61,3.97h-.9s0-6.31,0-6.31h28.94ZM140.97,70.25c-2.95,0-5.19,1.09-6.73,3.27-1.25,1.78-1.87,4.35-1.87,7.7,0,3.98.97,6.92,2.9,8.82,1.35,1.33,3.24,1.99,5.66,1.99,1.63,0,2.99-.29,4.09-.86,1.39-.73,2.47-1.91,3.25-3.52.78-1.61,1.17-3.71,1.17-6.3,0-3.09-.4-5.39-1.19-6.92-.79-1.53-1.8-2.61-3.03-3.24-1.22-.63-2.64-.94-4.23-.94ZM140.68,69.16c5.13-.14,9.3.94,12.52,3.24,3.2,2.31,4.81,5.19,4.81,8.65,0,2.96-1.19,5.56-3.59,7.8-3.17,2.98-7.65,4.47-13.43,4.47-5.79,0-10.28-1.42-13.45-4.27-2.5-2.25-3.76-4.91-3.76-7.99,0-3.46,1.63-6.35,4.88-8.65,3.26-2.31,7.26-3.4,12.01-3.26ZM103.11,70.25c-2.95,0-5.19,1.09-6.73,3.27-1.25,1.78-1.87,4.35-1.87,7.7,0,3.98.97,6.92,2.9,8.82,1.35,1.33,3.24,1.99,5.66,1.99,1.63,0,2.99-.29,4.09-.86,1.39-.73,2.47-1.91,3.25-3.52.78-1.61,1.17-3.71,1.17-6.3,0-3.09-.4-5.39-1.19-6.92-.79-1.53-1.8-2.61-3.03-3.24-1.22-.63-2.64-.94-4.23-.94ZM102.82,69.16c5.13-.14,9.3.94,12.52,3.24,3.2,2.31,4.81,5.19,4.81,8.65,0,2.96-1.19,5.56-3.59,7.8-3.17,2.98-7.65,4.47-13.43,4.47-5.79,0-10.28-1.42-13.45-4.27-2.5-2.25-3.76-4.91-3.76-7.99,0-3.46,1.63-6.35,4.88-8.65,3.26-2.31,7.26-3.4,12.01-3.26ZM59.48,81.58v7.22c0,1.19.09,1.94.27,2.24.19.3.54.56,1.07.78.54.23,1.25.34,2.15.34h1.07s0,.63,0,.63h-16.85s0-.63,0-.63h1.07c.93,0,1.69-.12,2.26-.36.41-.16.73-.43.95-.83.18-.27.27-.99.27-2.17v-15.33c0-1.19-.09-1.94-.27-2.24-.17-.3-.53-.56-1.05-.78-.53-.22-1.25-.33-2.15-.33h-1.07s0-.64,0-.64h16.85s0,.64,0,.64h-1.07c-.93,0-1.69.12-2.26.36-.41.16-.74.43-.97.83-.18.28-.26,1-.26,2.17v6.6h11.38v-6.6c0-1.19-.09-1.94-.26-2.24-.18-.3-.54-.56-1.07-.78-.54-.22-1.26-.33-2.17-.33h-1.05s0-.64,0-.64h16.83s0,.64,0,.64h-1.05c-.95,0-1.7.12-2.26.36-.41.16-.73.43-.97.83-.17.28-.26,1-.26,2.17v15.33c0,1.19.09,1.94.26,2.24.18.3.54.56,1.07.78.54.23,1.26.34,2.17.34h1.05s0,.63,0,.63h-16.83s0-.63,0-.63h1.05c.95,0,1.7-.12,2.26-.36.41-.16.73-.43.97-.83.17-.27.26-.99.26-2.17v-7.22h-11.38ZM23.95,70.8v18.19c0,.96.06,1.55.19,1.77.13.22.34.39.64.5.43.18,1.05.26,1.86.26,2.64,0,4.66-.65,6.06-1.96,1.9-1.77,2.85-4.5,2.85-8.21,0-2.99-.65-5.38-1.95-7.17-1.03-1.4-2.35-2.35-3.97-2.85-1.14-.36-3.03-.53-5.68-.52ZM11.66,92.79v-.63s1.07,0,1.07,0c.93,0,1.65-.11,2.15-.32.5-.21.87-.5,1.1-.87.15-.24.22-.96.22-2.17v-15.33c0-1.19-.09-1.94-.27-2.24-.17-.3-.52-.56-1.05-.78-.53-.22-1.25-.33-2.15-.33h-1.07s0-.64,0-.64h14.42c3.85,0,6.95.38,9.3,1.14,2.86.93,5.05,2.33,6.52,4.21,1.48,1.88,2.22,4.01,2.22,6.38,0,1.64-.37,3.15-1.1,4.53-.73,1.38-1.67,2.52-2.82,3.42-1.16.9-2.49,1.63-4.01,2.17-1.52.54-3.37.96-5.55,1.26-.97.13-2.49.21-4.57.21h-14.42Z"/><text class="cls-4" transform="translate(195.75 8.21)"><tspan x="0" y="0">R</tspan></text><ellipse class="cls-3" cx="198.01" cy="6.09" rx="3.58" ry="3.58"/></g></svg>