<?xml version="1.0" encoding="UTF-8"?><svg id="Layer_2" xmlns="http://www.w3.org/2000/svg" viewBox="0 0 165.52 163.43"><defs><style>.cls-1{fill:#b78f2a;}.cls-2{fill:#1f9687;}</style></defs><g id="Layer_1-2"><polygon class="cls-1" points="97.14 37.73 84.68 37.73 63.5 72.27 63.5 37.73 52.28 37.73 52.28 117.86 63.5 117.86 63.5 83.31 84.63 117.86 97.01 117.86 72.54 77.55 97.14 37.73"/><polygon class="cls-1" points="11.24 66.37 40.64 66.37 40.64 55.27 11.24 55.27 11.24 11.1 40.64 11.1 40.64 0 0 0 0 117.86 40.64 117.86 40.64 106.78 11.24 106.78 11.24 66.37"/><polygon class="cls-2" points="52.28 0 52.28 11.1 154.28 11.1 154.28 152.33 11.24 152.33 11.24 129.35 0 129.35 0 163.43 165.52 163.43 165.52 0 52.28 0"/><path class="cls-1" d="M134.98,37.73l-.05.05h-24.66l-.05-.05-.05.05h0l-9.98,9.85v70.23h11.18v-29.72h22.44v29.72h11.18l.02-70.23-10.03-9.9ZM133.81,77.1h-22.44v-24.9l3.43-3.39h15.6l3.41,3.37v24.92Z"/><path class="cls-2" d="M41.24,129.35v11.25h7.09v2.37h-9.69v-13.62h2.6Z"/><path class="cls-2" d="M66.74,142.97v-13.62h2.58v13.62h-2.58Z"/><path class="cls-2" d="M88.33,142.97v-13.6h9.92v2.47h-7.31v3.72h6.92v2.37h-6.92v5.04h-2.6Z"/><path class="cls-2" d="M126.89,142.97h-10.33v-13.62h10.33v2.49h-7.74v3.13h7.47v2.39h-7.47v3.08h7.74v2.53Z"/><polygon class="cls-1" points="110.27 29.44 114.53 33.65 122.6 25.68 130.67 33.65 136.35 28.03 122.6 14.44 108.84 28.03 110.27 29.44 110.27 29.44"/></g></svg>