<svg xmlns="http://www.w3.org/2000/svg" xml:space="preserve" id="Layer_1" x="0" y="0" version="1.1" viewBox="0 0 903.1 482.45"><style>.st0{fill:#FFF}.st1{fill:#FFF}</style><path d="M506.74 126.91h44.68c-.65-5.99-1.77-11.76-2.96-17.45-8.85-34.66-32.97-63.22-64.69-78.08-5.57-2.77-11.5-4.83-17.38-6.54v84.62h-65.81V24.84c-6.09 1.72-11.79 3.77-17.36 6.54-31.72 14.86-55.77 43.42-64.46 78.08-1.46 5.69-2.42 11.46-3.2 17.45h44.71v-17.45h-22.82c7.39-24.52 24-44.99 45.78-57.57v75.02h100.55V51.89c21.7 12.58 38.15 33.05 45.8 57.57h-22.82v17.45zM360.26 149.34h-44.71c.78 6 1.74 11.83 3.2 17.44 8.69 34.56 32.74 63.27 64.46 78.11 5.57 2.71 11.26 4.82 17.36 6.56v-84.67h65.81v84.67c5.88-1.74 11.81-3.85 17.38-6.56 31.72-14.84 55.84-43.55 64.69-78.11 1.19-5.61 2.31-11.44 2.96-17.44h-44.68v17.44h22.82c-7.65 24.58-24.09 45.14-45.8 57.76v-75.2H383.22v75.2c-21.78-12.62-38.38-33.19-45.78-57.76h22.82z" class="st0"/><path d="M268.75 295.49v54.37h-10.8v-18.43H232.9v18.43h-10.72v-54.37h10.72v26.45h25.06v-26.45zM337.14 322.71c0 15.35-12.88 27.76-28.92 27.76-15.96 0-28.92-12.42-28.92-27.76s12.96-27.76 28.92-27.76c16.04 0 28.92 12.42 28.92 27.76m-11.26 0c0-9.56-7.94-17.43-17.66-17.43-9.71 0-17.58 7.87-17.58 17.43 0 9.64 7.87 17.43 17.58 17.43 9.72 0 17.66-7.79 17.66-17.43M395.5 328.03c0 12.49-8.33 22.44-24.14 22.44-15.73 0-23.98-9.87-23.98-22.44v-32.54h10.8v29.69c0 10.26 4.55 15.11 13.18 15.11 8.79 0 13.34-4.94 13.34-15.11v-29.69h10.79v32.54zM448.84 333.89c0 10.49-8.4 16.66-21.05 16.66-9.26 0-13.96-.85-22.6-5.17l4.01-8.56c7.17 3.47 12.18 4.16 18.97 4.16 5.94 0 9.48-2.16 9.48-6.17 0-3.7-3.63-5.32-11.57-7.17-11.18-2.55-20.21-5.71-20.21-16.42 0-9.56 7.64-16.35 20.05-16.35 8.25 0 15.5 2.08 20.82 4.39l-4.47 8.79c-4.78-2-11.49-3.62-16.58-3.62-5.55 0-8.63 2.47-8.63 5.86 0 3.86 3.85 5.48 12.03 7.33 11.73 2.62 19.75 6.32 19.75 16.27M500.81 340.29v9.56h-41.72v-54.37h40.1v9.56h-29.38v13.8h24.6v9.25h-24.6v12.18h31zM593.17 322.71c0 15.35-12.88 27.76-28.92 27.76-15.96 0-28.92-12.42-28.92-27.76s12.96-27.76 28.92-27.76c16.04 0 28.92 12.42 28.92 27.76m-11.26 0c0-9.56-7.94-17.43-17.66-17.43s-17.59 7.87-17.59 17.43c0 9.64 7.87 17.43 17.59 17.43s17.66-7.79 17.66-17.43M614.59 305.05v19.36h25.99v9.56h-25.99v15.89h-10.72v-54.37h40.95v9.56zM78.18 461v-27.9H38.06V461H24.01v-80.11h14.05v40.04h40.12v-40.04h14.16V461zM109.59 380.89h14.63v80.12h-14.63zM191.81 461l-15.93-21.32-.63.08c-.87.11-2.01.11-3.02.11h-16.38V461h-14.51v-80.12h35.21c27.08 0 31.13 17.89 31.13 28.56 0 13.43-5.4 22.56-16.03 27.13l-1.3.56L208.99 461zm-35.95-32.72h15.8c12.96 0 20.7-6.56 20.7-17.55 0-5.28-1.8-17.55-18.48-17.55h-18.02zM283.61 461l-7.47-16.69h-38.19L230.6 461h-15.19l38.18-80.12h6.91L298.8 461zm-40.68-28.4h28.25l-14.19-30.91zM374.44 461l-50.7-53.47V461h-14.52v-80.11h6.62l50.58 53.47v-53.47h14.63V461zM459.67 461l-7.47-16.69h-38.19L406.66 461h-15.19l38.18-80.12h6.91l38.3 80.12zm-40.69-28.4h28.26l-14.19-30.91zM550.49 461l-50.7-53.47V461h-14.51v-80.11h6.61l50.58 53.47v-53.47h14.63V461zM574.01 461v-80.12h31.48c22.25 0 40.35 18 40.35 40.12 0 21.68-17.25 40-37.67 40zm14.04-13.11h18.72c13.44 0 24.79-12.31 24.79-26.89 0-14.89-11.7-27-26.07-27h-17.43v53.89zM715.34 461l-7.47-16.69h-38.19L662.33 461h-15.19l38.18-80.12h6.91l38.3 80.12zm-40.68-28.4h28.25l-14.19-30.91zM806.17 461l-50.71-53.47V461h-14.51v-80.11h6.62l50.58 53.47v-53.47h14.63V461zM830.03 380.89h14.63v80.12h-14.63z" class="st1"/><path d="M25.68 318.84h163.07v7.39H25.68zM681.72 318.84h163.07v7.39H681.72z" class="st0"/><path d="M857.54 395.43v-12.08h-4.32v-2.46h11.56v2.46h-4.3v12.08zM867.86 395.43v-14.54h4.39l2.64 9.92 2.61-9.92h4.4v14.54h-2.73v-11.45l-2.88 11.45h-2.83l-2.88-11.45v11.45z" class="st1"/></svg>