<?xml version="1.0" encoding="UTF-8"?>
<svg id="Layer_1" data-name="Layer 1" xmlns="http://www.w3.org/2000/svg" viewBox="0 0 400 183.27">
  <defs>
    <style>
      .cls-1 {
        fill: #fff;
      }

      .cls-2 {
        fill: #229686;
      }
    </style>
  </defs>
  <g>
    <polygon class="cls-2" points="84.72 111.79 51.61 21.53 40.84 21.53 7.34 111.79 1.16 111.79 1.16 114.29 37.67 114.29 37.59 87.57 26.52 87.59 45.93 57.32 65.41 87.52 54.34 87.54 54.4 114.29 90.76 114.29 90.76 111.79 84.72 111.79"/>
    <path class="cls-2" d="M124.52,15.75v96.17h7.36v2.37h-39.02v-2.37h7.22V18.12h-7.75v-2.37h32.19Z"/>
    <path class="cls-2" d="M140.94,54.12h-7.23v-2.36h7.23v-16.95l24.44-6.04v22.99h17.08v2.36h-17.08v44.28c0,7.75,1.18,11.96,5.78,11.96,6.31,0,10.25-5.78,11.43-14.71l2.23.26c-1.18,10.25-5.52,19.71-21.55,19.71-13.01,0-22.33-3.81-22.33-20.1v-41.38Z"/>
    <path class="cls-2" d="M232.38,114.29l-1.44-9.59c-2.5,6.17-6.7,10.9-18.53,10.9s-20.36-6.04-20.36-21.94v-39.54h-7.36v-2.36h31.79v45.06c0,11.17,1.58,12.88,4.86,12.88,5.26,0,9.33-5.39,9.33-15.37v-40.2h-6.04v-2.36h30.48v60.17h7.23v2.37h-29.95Z"/>
    <path class="cls-2" d="M296.63,76.71v35.21h9.33v2.37h-40.99v-2.37h7.22v-57.81h-7.22v-2.36h31.66v12.61c2.36-9.33,9.72-13.93,17.6-13.93s13.93,4.07,13.93,14.06c0,7.49-3.94,12.48-11.04,12.48-8.8,0-13.01-5.52-10.25-14.85h4.73c2.63-5.39,0-6.7-2.76-6.7-6.31,0-12.22,9.46-12.22,21.28Z"/>
    <path class="cls-2" d="M363.36,83.41v-10.12c0-16.69-1.45-21.02-6.7-21.02-2.37,0-6.18,1.05-6.18,5.25,0,1.05.26,2.37.79,3.81h3.28c.66,1.71,1.05,3.42,1.05,5.91,0,6.17-4.99,10.25-11.56,10.25-8.14,0-11.3-4.47-11.3-10.9,0-11.04,9.59-16.16,27.46-16.16,20.63,0,27.59,5.78,27.59,24.83v26.67c0,5.39,1.58,6.83,3.81,6.83,2.37,0,4.6-2.5,5.26-13.53l1.97.13c-.66,15.77-5.52,20.23-16.82,20.23-10.64,0-16.55-3.28-18.13-9.72-2.1,6.31-5.91,9.72-15.11,9.72s-19.44-2.76-19.44-15.9,11.43-16.29,30.22-16.29h3.81ZM363.36,97.73v-12.22h-.92c-5.52,0-8.14,3.94-8.14,11.96v2.1c0,9.46.92,10.77,3.42,10.77s5.65-4.2,5.65-12.61Z"/>
  </g>
  <g>
    <path class="cls-1" d="M202.9,167.52h-10.92l-2.47-3.58-2.49-3.6c1.51-1.85,2.89-3.8,4.16-5.83.44-.7.87-1.39,1.31-2.07l2.65,3.84,7.76,11.24Z"/>
    <path class="cls-1" d="M102.95,148.99c0-2.37-1.1-3.56-5.44-3.56s-5.63,1.14-5.57,3.4c-.55-.05-1.29-.05-2.03-.05-.8,0-1.57,0-2.14.08-.03-4.43,2.83-6.64,9.78-6.64,7.44,0,9.89,2.61,9.89,6.55,0,1.9-.11,3.4-.11,5.38s.14,3.97.41,4.81h-3.71c-.85,0-1.04-.14-1.04-1.14,0-.6,0-1.33.05-2.09h-.19c-1.04,2.37-3.87,3.64-8.24,3.64-5,0-7.47-1.36-7.47-4.71s2.75-4.79,8.84-4.79c2.91,0,5.35.14,6.97.43v-1.33ZM102.92,152.14c-1.92-.22-4.06-.3-6.32-.3-3.62,0-5.16.73-5.16,2.26s1.26,2.26,4.75,2.26c4.34,0,6.73-1.63,6.73-3.89v-.33Z"/>
    <path class="cls-1" d="M116.46,142.68c3.49.03,7.28,0,10.05-.03-.06,1.01-.11,2.5-.08,3.56-2.61-.05-6.43-.08-10.02-.14-.03,1.93-.03,4-.03,6.25,0,2.12.99,3.18,4.26,3.18,2.33,0,4.17-.35,5.57-.82.16,1.25.41,2.64.66,3.78-2.09.41-4.12.71-6.73.71-6.29,0-8.13-2.61-8.13-6.15,0-1.58.03-4.27.03-6.99h-2.77c0-.87,0-2.5-.03-3.4.77,0,1.73.03,2.83.03v-3.45c.74,0,1.51.03,2.28.03s1.46,0,2.17-.03l-.06,3.45Z"/>
    <path class="cls-1" d="M157.15,139.23h-16.26l-.12.63c-.67,3.41-1.68,7.81-2.95,13.38-1.27,5.58-2.2,9.61-3.15,13.31l-.25.97h16.55c11.38,0,17.22-4.29,19.52-14.33,1.07-4.68.72-7.92-1.09-10.19-2.05-2.57-5.94-3.77-12.25-3.77M143.84,160.92c.39-1.8.9-4.02,1.61-7.16.62-2.7,1.3-5.56,1.91-7.96,2.64-.06,5.41-.09,8.45-.09,3.52,0,5.61.56,6.57,1.76.85,1.07.97,2.86.37,5.48-1.32,5.8-4.36,8.06-10.83,8.06-.74,0-1.43,0-2.09,0-2.15.01-3.9.02-6-.09"/>
    <path class="cls-1" d="M238.56,142.32c-1.68-2.11-4.82-3.09-9.88-3.09h-18.03l-.12.63c-.69,3.66-1.62,7.72-2.9,13.34-1.31,5.72-2.17,9.5-3.19,13.34l-.26.98h8.3l.1-.66c.25-1.63.65-3.71,1.25-6.52,4.31.12,6.71.12,10.25.12,8.77,0,13.83-3.45,15.45-10.55.76-3.34.45-5.82-.97-7.59M231.91,149.63c-.64,2.8-2.14,4.42-7.91,4.42-2.48,0-4.89-.03-6.82-.05-.75,0-1.41-.02-1.98-.02l1.9-8.34c2.74-.06,7.42-.09,9.37-.09,2.86,0,4.51.4,5.19,1.26.46.58.54,1.5.24,2.81"/>
    <g>
      <path class="cls-1" d="M274.98,152.3c-1.94,2.98-6.27,4.32-12.33,4.32-9.43,0-13.32-2.73-13.32-7.99,0-5.6,4.59-9.41,15.01-9.41s16.55,4.22,16.55,14.5c0,9.67-6.68,13.77-16.55,13.77-10.86,0-15.08-3.16-15.08-8.65,0-.25,0-.47.04-.73.88.07,1.8.11,3.05.11s2.35-.04,3.12-.11c-.04.15-.04.33-.04.47,0,2.65,1.98,4.4,8.95,4.4s10.24-2.36,10.6-7.7c.04-.84.07-1.85.11-2.94l-.11-.04ZM273.73,148.38c0-2.69-3.01-4.62-9.14-4.62s-9.03,1.67-9.03,4.72,2.42,4.36,8.59,4.36,9.58-1.49,9.58-4.47"/>
      <path class="cls-1" d="M312.86,162.18c-3.52.11-7.74.11-12.27.11-2.77,0-7.55.07-11.56.07.15-2.85,2.06-3.78,10.62-5.33,9.76-1.82,13.2-3.78,13.2-9.15s-4.53-8.63-14.47-8.63c-9.42,0-14.92,3.19-14.92,9.7,0,.74.07,1.44.11,2.22.75-.04,1.91-.07,3.07-.07s2.47.04,3.07.07c0-.7-.04-1.3-.04-1.89,0-3.37,2.43-5.26,8.71-5.26,5.83,0,8.27,1.44,8.27,4.11,0,2.81-2.13,3.93-10.17,5.59-9.01,1.82-13.54,3.89-13.54,10,0,.52.04,1.3.04,1.85,0,.78-.04,1.44-.07,1.93h29.96v-5.33Z"/>
    </g>
    <path class="cls-1" d="M199.56,139.23s-3.7.89-10.62,8.05c-1.69,1.75-3.58,3.89-5.67,6.48-.14.18-.29.35-.43.52-6.67,7.96-16.1,11.78-20.65,13.24h11.89c4.37-2.54,8.06-5.58,11.49-9.27.44-.47.88-.96,1.31-1.45,2.04-2.33,3.36-4.07,4.69-5.7.7-.86,1.4-1.7,2.2-2.57,2.28-2.56,4.77-4.98,7.62-6.9-3.62,3.03-6.32,6.78-8.9,10.8-.44.68-.87,1.38-1.31,2.07-1.27,2.04-2.65,3.98-4.16,5.83-2.12,2.61-4.48,5.01-7.05,7.18h5.72c.85-.7,2.27-1.94,3.83-3.58,1.94-2.04,4.1-4.69,5.62-7.66,0,0,0,0,0,0,6.02-11.77,14.01-17.05,14.01-17.05h-9.6Z"/>
    <path class="cls-1" d="M183.39,139.23h-10.93l10.39,15.05,2.74,3.97c.44-.47.88-.96,1.31-1.45,2.04-2.33,3.36-4.07,4.69-5.7l-2.64-3.82-5.55-8.05Z"/>
  </g>
</svg>